<?xml version="1.0" encoding="utf-8"?>
<!-- Generator: Adobe Illustrator 25.0.1, SVG Export Plug-In . SVG Version: 6.00 Build 0)  -->
<svg version="1.1" id="Capa_1" xmlns="http://www.w3.org/2000/svg" xmlns:xlink="http://www.w3.org/1999/xlink" x="0px" y="0px"
	 viewBox="0 0 353 339" style="enable-background:new 0 0 353 339;" xml:space="preserve">
<style type="text/css">
	.st0{fill:#FFFFFF;}
</style>
<path class="st0" d="M145.6,169.8c-10.3-0.1-20.6-0.3-31-0.1c-2.8,0-3.7-0.7-3.7-3.2c0.2-11.2,0.2-22.6,0.2-33.8
	c10.7,0,21.3,0,32-0.1c1.2,0,3.3,0.8,3.3-1.5c0.1-9.6,0.1-19.3,0.3-28.9c0.2-10.3,3-19.9,9.7-28.4c7-8.8,16.6-14.5,28.4-16.4
	c15.4-2.6,30.9-1.5,46.4-0.3c1.6,0.1,1.8,0.9,1.8,2.1c0,10,0,19.9,0,29.9c0,1.9-1.2,1.9-2.7,1.9c-7.8,0-15.6-0.1-23.5,0.1
	c-4.2,0.1-8.1,0.9-11.7,3c-5,3.1-6,7.9-6.2,12.8c-0.4,7.9-0.1,15.8-0.2,23.7c0,2.1,1.2,2.2,3.1,2.2c11.7,0,23.5,0.1,35.2-0.1
	c3,0,3.7,0.4,3.3,3.4c-0.7,5.9-2.1,11.7-2.6,17.7c-0.4,4.5-1.3,8.9-1.8,13.4c-0.2,2.1-1.4,2.6-3.6,2.6c-9.6-0.1-19.1-0.1-28.6,0
	c-1.3,0-2.5,0.1-3.8,0.2c-1.1,0-1,0.7-0.8,1.3c-0.1,0.8-0.2,1.6-0.2,2.4c0,29.4,0,58.7,0,88.2c0,0.8,0.1,1.6,0.2,2.4
	c0,0.2,0.1,0.4,0.1,0.6c-14.3,0-28.5,0-42.8,0c0.1-0.2,0.1-0.4,0.1-0.6c0.1-0.8,0.2-1.6,0.2-2.4c0-29.4,0-58.7,0-88.1
	c0-0.8-0.1-1.6-0.2-2.4C146.6,170.5,146.7,169.8,145.6,169.8z"/>
</svg>
