<?xml version="1.0" encoding="utf-8"?>
<!-- Generator: Adobe Illustrator 25.0.1, SVG Export Plug-In . SVG Version: 6.00 Build 0)  -->
<svg version="1.1" id="Capa_1" xmlns="http://www.w3.org/2000/svg" xmlns:xlink="http://www.w3.org/1999/xlink" x="0px" y="0px"
	 viewBox="0 0 353 339" style="enable-background:new 0 0 353 339;" xml:space="preserve">
<style type="text/css">
	.st0{fill:#FFFFFF;}
</style>
<g>
	<path class="st0" d="M119.8,263.9c-0.8-1.1-2.1-1-3.3-1.4c-15.8-5.3-26.7-15.7-32.3-31.5c-0.3-0.9-0.7-1.7-1.1-2.5
		c-0.8-4.6-1.7-9.3-2.5-13.9c-0.2-6.3-0.6-12.6-0.6-19c0.1-26.5-1.3-53.1,1.8-79.6c2.9-11.3,7.9-21.4,16.5-29.5
		c1.2,0,1.8-0.9,2.6-1.4c3.1-2.2,6.2-4.4,9.7-6c10.3-4.7,21.5-4.6,32.3-6.3c0.7,1,1.7,0.6,2.5,0.6c16.2,0,32.4-0.1,48.6-0.2
		c10.2,0,20.3,0.1,30.5,1.3c0.4,0,0.9,0,1.3,0c11.9,1.8,22.4,6.6,31.1,14.9c2.4,3,4.8,6.1,7.1,9.1c0.5,0.8,1,1.7,1.4,2.5l0,0
		c5.2,11,6.8,22.7,7,34.8c0.4,18.5,0.4,37,0.2,55.4c-0.1,9.4,0,18.8-1.5,28.1c-2.2,15.5-9.1,28.2-22.3,37.1
		c-0.9,0.6-1.9,1.2-2.5,2.2c-3.7,0.7-6.8,3-10.4,4.1c-9.4,3.2-19.4,2.6-29.1,3.6c-16.6,0-33.2,0.1-49.9,0
		c-11.6-0.1-23.3,0.1-34.8-2.2C121.7,263.9,120.7,264,119.8,263.9z M112.4,98.5c-0.2,0.2-0.5,0.4-0.7,0.6l0.1-0.1
		c-2.5,1.4-4.3,3.5-5.9,5.7c-0.2,0.1-0.3,0.2-0.3,0.4c-1.7,1.6-2.8,3.6-3.6,5.7c-0.1,0.1-0.1,0.3-0.1,0.4c-1.3,1.9-1.8,4.1-2.3,6.3
		c-1.3,4-1.7,8.2-1.8,12.3c-0.7,21.1-0.6,42.3-0.4,63.5c0.1,8.1,0.1,16.2,1.3,24.2c1.2,7.1,3.4,13.9,8.7,19.2c0.7,0.8,1.3,1.6,2,2.2
		c7.7,7.1,17.2,9.1,27.1,9.5c26.5,1,53,1,79.5,0c8.8-0.3,17.3-1.9,24.4-7.6c2.9-1.3,4.8-3.7,6.6-6.1c5.9-7.6,7.4-16.7,7.8-26
		c0.9-19.3,0.4-38.6,0.5-57.9c0-8.3,0-16.6-0.8-24.8c-0.8-7.8-2.5-15.3-7.8-21.5c-1.5-2.2-3.3-4.1-5.6-5.5
		c-5.6-4.8-12.4-6.5-19.4-7.4c-7.2-0.9-14.4-1-21.7-1c-20.6,0-41.2-0.5-61.8,0.4c-8,0.3-15.9,1.1-22.9,5.5l0,0
		C114.2,96.8,113.2,97.4,112.4,98.5L112.4,98.5z"/>
	<path class="st0" d="M225.4,178c-2,12.7-8.5,22.8-18.3,30.7c-12.9,10.2-27.6,13-43.5,9c-1.7-0.4-3.3-0.9-5-1.4l0,0
		c-3.5-1.9-6.9-3.7-10.4-5.6l0,0c-0.8-1.1-1.9-1.8-3.1-2.4l0,0c-2.4-2.5-4.9-4.9-7.3-7.4l0,0c-0.3-1-1-1.8-1.9-2.5l0,0
		c-0.6-1.4-1.3-2.7-2.4-3.7l0,0c-0.8-1.7-1.7-3.3-2.5-5c-1.2-3.8-2.4-7.5-3.5-11.3c-0.7-6.7-0.5-13.4,0.5-20l0.2-0.1v-0.2
		c2.2-7.2,5.3-14,10.1-19.9c5.8-7.1,13-12,21.5-15.2c1.1-0.4,2.3-0.8,3.4-1.2c21.7-5,39.5,1.3,53.5,18.5c5.3,7.5,8.1,15.9,9.4,24.9
		C226.1,169.5,226.1,173.8,225.4,178z M200.2,191.1L200.2,191.1c0.6-0.5,1.2-1.1,1.7-1.7c11.5-14.5,8-36.4-7.5-46.5
		c-8.9-5.8-18.6-7.3-28.8-3.4c-1.7,0.8-3.6,1.2-5.3,2.2c-20.6,12-21.7,41.3-1.9,54.7c12.1,8.2,29.1,7,39.3-2.8
		C198.8,193.1,199.8,192.3,200.2,191.1z"/>
	<path class="st0" d="M234.4,108.4c6.4,6.3,6.4,12.4,0.1,18.8c-7.1,3.5-10.3,3.2-14.7-1.4c-3.7-3.8-4.3-8.4-1.6-14.3v-0.1
		c0.5-0.3,0.5-0.8,0.4-1.3c0.6-0.9,2.1-0.6,2.6-1.8C225.5,105.8,229.9,105.9,234.4,108.4z"/>
</g>
</svg>
