<?xml version="1.0" encoding="utf-8"?>
<!-- Generator: Adobe Illustrator 25.0.1, SVG Export Plug-In . SVG Version: 6.00 Build 0)  -->
<svg version="1.1" id="Capa_1" xmlns="http://www.w3.org/2000/svg" xmlns:xlink="http://www.w3.org/1999/xlink" x="0px" y="0px"
	 viewBox="0 0 321.5 321.5" style="enable-background:new 0 0 321.5 321.5;" xml:space="preserve">
<style type="text/css">
	.st0{fill:#FFFFFF;}
</style>
<path class="st0" d="M48.1,197.6c8.5,5.2,17.3,9.8,27.3,11.4c19.7,3.1,36.9-2.1,52.2-16c-5.3-1.4-10.7-1.8-13.7-6.6
	c-2.6-4-1.1-8.3,5-13.6c-3.2-0.4-6.1-0.6-8.9-1.3c-4.5-1.1-8.6-3.5-11.8-6.9c-5.9-6.1-5.3-8.5,2.7-11.4c1.3-0.5,2.9-0.2,4.1-1.7
	c-3.5-1.7-7-3.2-10.2-5.2c-4.7-3-8.3-7.5-10-12.8c-1.2-3.5-1-5.4,3.3-5.5c2.3-0.1,4.5-0.8,7.3-1.3c-4.6-3.8-9.3-6.8-12.4-11.7
	c-2.7-4-4.3-8.6-4.8-13.4c-0.2-2.3,0-3.6,2.8-2.5c21.9,8.8,44.3,16.6,63.9,30.3c3.3,2.3,6.1,5.3,9.3,8.1c3.7-8.1,7.2-16.1,11-23.9
	c4.8-10,10.9-19.2,19.5-26.4c1.9-1.6,3.2-4.9,7.3-2.1c1.5,1,5.7-2,8.7-3.1c1.3-0.5,2.9-1.3,3.9,0c0.9,1.1-0.6,2.3-0.9,3.4
	c-0.2,0.2-0.4,0.4-0.6,0.6c0.4,0.6,0.8,0.3,1-0.2c2.5-0.4,4.9-0.8,7.4-1.1c1.6-0.2,3.3,0.1,3.9,1.9s-0.6,3-2,3.9
	c-4.2,2.7-9.4,3-14.5,5.1c24.9,2.7,38.8,17.2,45.8,39.6c1.6,5,4.5,6.3,11.3,5.5c5.6-0.7,11.2-2,16.6-3.8c-4.2,9.8-12.6,12.3-22,15.3
	c8,2.4,15,2.5,23.5,1.8c-7.1,7.3-14.6,10.3-23.2,10.7c-2.5,0.1-4.3,0.2-5.2,3.2c-9.6,30.9-31.3,50.5-60.4,62.1
	c-38.4,15.3-76.1,13.9-112-8.2c-10.1-6.1-18.8-14.1-25.7-23.7C47.7,197.9,47.9,197.8,48.1,197.6z"/>
</svg>
