<?xml version="1.0" encoding="utf-8"?>
<!-- Generator: Adobe Illustrator 24.1.0, SVG Export Plug-In . SVG Version: 6.00 Build 0)  -->
<svg version="1.1" id="Capa_1" xmlns="http://www.w3.org/2000/svg" xmlns:xlink="http://www.w3.org/1999/xlink" x="0px" y="0px"
	 viewBox="0 0 353 339" style="enable-background:new 0 0 353 339;" xml:space="preserve">
<style type="text/css">
	.st0{fill:#FFFFFF;}
</style>
<path class="st0" d="M176.5,41C109.4,41,55,95.4,55,162.5S109.4,284,176.5,284S298,229.6,298,162.5S243.6,41,176.5,41z M216.8,216.2
	c-1.9,1.9-3.9,3.9-5.5,5.5c-1.5,1.5-2.5,3.3-3,5.2c-0.7,2.8-1.3,5.6-2.3,8.3l-8.5,23c-6.7,1.5-13.7,2.3-20.9,2.3v-13.4
	c0.8-6.2-3.7-17.8-11.1-25.1c-2.9-2.9-4.6-6.9-4.6-11.1v-15.7c0-5.7-3.1-10.9-8.1-13.7c-7-3.9-17.1-9.3-23.9-12.8
	c-5.6-2.8-10.8-6.4-15.5-10.7l-0.4-0.4c-3.3-3-6.3-6.4-8.8-10.2c-4.6-6.7-12.1-17.8-16.9-25.1c10-22.3,28.1-40.2,50.6-49.9l11.8,5.9
	c5.2,2.6,11.3-1.2,11.3-7v-5.5c3.9-0.6,7.9-1,11.9-1.2l13.9,13.9c3.1,3.1,3.1,8,0,11.1l-2.3,2.3l-5.1,5.1c-1.5,1.5-1.5,4,0,5.5
	l2.3,2.3c1.5,1.5,1.5,4,0,5.5l-3.9,3.9c-0.7,0.7-1.7,1.1-2.8,1.1h-4.4c-1,0-2,0.4-2.7,1.1l-4.9,4.7c-1.2,1.2-1.5,3-0.8,4.6l7.6,15.3
	c1.3,2.6-0.6,5.7-3.5,5.7h-2.8c-0.9,0-1.9-0.3-2.6-1l-4.5-3.9c-2.1-1.8-5-2.4-7.6-1.5l-15.3,5.1c-2.4,0.8-4,3-4,5.6
	c0,2.2,1.3,4.2,3.2,5.2l5.4,2.7c4.6,2.3,9.7,3.5,14.8,3.5c5.2,0,11.1,13.4,15.7,15.7h32.7c4.2,0,8.1,1.7,11.1,4.6l6.7,6.7
	c2.8,2.8,4.4,6.6,4.4,10.6C223.5,206.1,221.1,211.9,216.8,216.2z M259.3,171.4c-2.8-0.7-5.3-2.4-6.9-4.9l-8.8-13.2
	c-2.6-3.9-2.6-9.1,0-13l9.6-14.4c1.1-1.7,2.7-3.1,4.5-4l6.4-3.2c6.6,13.2,10.4,28,10.4,43.8c0,4.2-0.4,8.4-0.9,12.5L259.3,171.4z"/>
</svg>
