<?xml version="1.0" encoding="utf-8"?>
<!-- Generator: Adobe Illustrator 25.0.1, SVG Export Plug-In . SVG Version: 6.00 Build 0)  -->
<svg version="1.1" id="Capa_1" xmlns="http://www.w3.org/2000/svg" xmlns:xlink="http://www.w3.org/1999/xlink" x="0px" y="0px"
	 viewBox="0 0 353 339" style="enable-background:new 0 0 353 339;" xml:space="preserve">
<style type="text/css">
	.st0{fill:#FFFFFF;}
</style>
<path class="st0" d="M170.6,89.4c19.6,0,35.9,0.3,52.3,1c8.1,0.3,16.2,0.8,24.3,1.7c5.1,0.5,10.2,1,14.9,3.1
	c8.5,3.8,13.4,10.4,15.3,19.4c1.6,7.4,2.3,14.8,2.9,22.3c0.5,7.5,0.8,14.9,0.9,22.4c0.1,9-0.2,18.1-0.8,27.1
	c-0.4,6.6-1,13.3-2.1,19.9c-0.9,5.1-1.9,10.1-5,14.5c-4.7,6.7-11.1,10.3-19.1,11.4c-11.8,1.7-23.6,2.1-35.5,2.6
	c-18.9,0.7-37.8,0.9-56.7,0.7c-11.6-0.2-23.2-0.4-34.8-1c-9.5-0.5-19.1-1-28.5-2.5c-12.1-2-20.6-10.3-22.9-22.5
	c-1.6-8.6-2.3-17.3-2.8-26c-0.6-9.9-0.8-19.9-0.5-29.8c0.3-11.8,0.9-23.6,2.8-35.3c0.9-5.7,2.5-11.1,6.3-15.7
	c4.6-5.6,10.5-8.8,17.7-9.8c11.5-1.6,23.1-2.1,34.7-2.6c6.7-0.3,13.3-0.4,20-0.6C160.6,89.5,167.2,89.4,170.6,89.4z M156,193.8
	c18.1-10.4,36.1-20.8,54.3-31.2c-18.1-10.5-36.1-20.9-54.3-31.3C156,152.1,156,172.9,156,193.8z"/>
</svg>
