<?xml version="1.0" encoding="utf-8"?>
<!-- Generator: Adobe Illustrator 24.1.2, SVG Export Plug-In . SVG Version: 6.00 Build 0)  -->
<svg version="1.1" id="Capa_1" xmlns="http://www.w3.org/2000/svg" xmlns:xlink="http://www.w3.org/1999/xlink" x="0px" y="0px"
	 viewBox="0 0 144 90" style="enable-background:new 0 0 144 90;" xml:space="preserve">
<style type="text/css">
	.st0{fill:#FFFFFF;}
</style>
<g>
	<g>
		<g>
			<path class="st0" d="M2,70.2l0.2-0.9c0.5,0.3,1.2,0.6,1.8,0.6c0.8,0,1.2-0.3,1.2-0.9c0-0.8-1.1-1-2-1.6c-0.6-0.4-1.1-0.8-1.1-1.6
				c0-1.1,0.9-1.7,2.2-1.7c0.6,0,1.4,0.2,1.9,0.4l-0.2,0.9c-0.4-0.2-1-0.4-1.6-0.4c-0.7,0-1.1,0.2-1.1,0.8c0,0.7,1.2,1,2.1,1.6
				c0.5,0.4,0.9,0.8,0.9,1.6c0,1.4-1.1,1.9-2.3,1.9C3.1,70.8,2.4,70.5,2,70.2z"/>
			<path class="st0" d="M7.9,63.6c0.4,0,0.7,0.3,0.7,0.6c0,0.4-0.3,0.6-0.7,0.6c-0.4,0-0.7-0.3-0.7-0.6C7.3,63.9,7.5,63.6,7.9,63.6z
				 M7.4,65.9h1.1v4.8H7.4V65.9z"/>
			<path class="st0" d="M11.1,70.8c-0.6,0-1.3-0.2-1.7-0.4l0.1-0.8c0.4,0.2,1,0.4,1.5,0.4c0.5,0,0.9-0.1,0.9-0.6
				c0-0.9-2.5-0.5-2.5-2.1c0-0.9,0.8-1.4,1.9-1.4c0.6,0,1.2,0.2,1.5,0.3l-0.2,0.8c-0.3-0.1-0.9-0.3-1.3-0.3c-0.5,0-0.8,0.2-0.8,0.6
				c0,0.8,2.5,0.5,2.5,2.1C13.2,70.3,12.2,70.8,11.1,70.8z"/>
			<path class="st0" d="M13.7,65.9h0.8l0.2-1.2h0.9v1.2H17L17,66.7h-1.4v2.5c0,0.4,0.1,0.7,0.6,0.7c0.2,0,0.6-0.1,0.9-0.2l0.1,0.8
				c-0.5,0.2-1,0.3-1.4,0.3c-1,0-1.4-0.5-1.4-1.5v-2.6h-0.8C13.7,66.7,13.7,65.9,13.7,65.9z"/>
			<path class="st0" d="M22,70.4c-0.5,0.2-1.1,0.3-1.7,0.3c-1.3,0-2.5-0.6-2.5-2.4c0-1.9,1.1-2.5,2.3-2.5c1.4,0,2,0.8,2,2.1
				c0,0.1,0,0.2,0,0.4H19v0.2c0,1.1,0.6,1.5,1.5,1.5c0.5,0,1-0.1,1.5-0.3L22,70.4z M21.1,67.7c0-0.8-0.4-1.1-1-1.1
				c-0.6,0-1,0.3-1.1,1.1H21.1z"/>
			<path class="st0" d="M23.1,65.9h0.9l0.1,0.6l0.1,0c0.5-0.5,1-0.7,1.6-0.7c0.6,0,1.1,0.3,1.3,0.8h0.1c0.5-0.5,1.1-0.8,1.7-0.8
				c1.1,0,1.6,0.7,1.6,1.8v3h-1.1v-2.9c0-0.7-0.3-1.1-0.8-1.1c-0.4,0-0.9,0.2-1.1,0.6v3.4h-1.1v-2.9c0-0.7-0.3-1.1-0.8-1.1
				c-0.4,0-0.9,0.3-1.2,0.7v3.3h-1.1L23.1,65.9L23.1,65.9z"/>
			<path class="st0" d="M36,70.6c-0.3,0.1-0.7,0.2-0.9,0.2c-0.5,0-0.7-0.2-0.8-0.6l0,0c-0.5,0.4-0.9,0.7-1.5,0.7
				c-0.8,0-1.5-0.6-1.5-1.4c0-0.7,0.4-0.9,1.1-1.1c0.6-0.2,1.4-0.3,1.9-0.4v-0.3c0-0.6-0.2-0.9-0.9-0.9c-0.5,0-1.1,0.2-1.6,0.4
				l-0.2-0.7c0.6-0.3,1.3-0.5,1.9-0.5c1,0,2,0.3,2,1.7v2.1c0,0.2,0,0.3,0.3,0.3c0.1,0,0.2,0,0.3,0L36,70.6z M33.2,70
				c0.3,0,0.7-0.2,1.1-0.6v-1.1c-0.4,0.1-1,0.2-1.3,0.3c-0.3,0.1-0.5,0.2-0.5,0.6C32.5,69.7,32.8,70,33.2,70z"/>
			<path class="st0" d="M40.3,68.2v2.5h-1.2V64h2.2c1.5,0,2.3,0.8,2.3,2c0,1.3-0.8,2.2-2.6,2.2C40.7,68.3,40.5,68.2,40.3,68.2z
				 M40.3,67.3c0.2,0,0.4,0,0.5,0c1,0,1.5-0.3,1.5-1.3c0-0.8-0.5-1.1-1.3-1.1h-0.7V67.3z"/>
			<path class="st0" d="M48.7,70.7h-0.9l-0.2-0.6l-0.1,0c-0.5,0.4-1,0.7-1.5,0.7c-1,0-1.6-0.7-1.6-1.8v-3.1h1.1v2.9
				c0,0.7,0.3,1.1,0.9,1.1c0.4,0,0.9-0.3,1.1-0.6v-3.4h1.1L48.7,70.7L48.7,70.7z M45.8,65l1.2-2l0.9,0.5l-1.6,1.7L45.8,65z"/>
			<path class="st0" d="M49.9,63.9H51v1.6l0,0.9l0,0c0.3-0.3,0.7-0.7,1.4-0.7c1.2,0,1.9,1.1,1.9,2.4c0,1.6-0.7,2.6-2.3,2.6
				c-0.5,0-1-0.1-1.6-0.3l-0.2,0.3h-0.3C49.9,70.7,49.9,63.9,49.9,63.9z M51,67.3v2.4c0.3,0.1,0.6,0.2,0.9,0.2
				c0.9,0,1.3-0.7,1.3-1.7c0-0.9-0.4-1.6-1-1.6C51.7,66.6,51.3,66.9,51,67.3z"/>
			<path class="st0" d="M55.3,63.9h1.1v6.8h-1.1V63.9z"/>
			<path class="st0" d="M58.1,63.6c0.4,0,0.7,0.3,0.7,0.6c0,0.4-0.3,0.6-0.7,0.6c-0.4,0-0.7-0.3-0.7-0.6
				C57.5,63.9,57.7,63.6,58.1,63.6z M57.6,65.9h1.1v4.8h-1.1V65.9z"/>
			<path class="st0" d="M59.7,68.4c0-1.4,0.5-2.5,2.2-2.5c0.5,0,1.1,0.1,1.5,0.3L63.3,67c-0.3-0.2-0.8-0.3-1.2-0.3
				c-0.9,0-1.2,0.6-1.2,1.6c0,0.9,0.4,1.5,1.3,1.5c0.4,0,0.9-0.1,1.2-0.2l0.1,0.8c-0.4,0.2-1,0.3-1.6,0.3
				C60.6,70.8,59.7,70,59.7,68.4z"/>
			<path class="st0" d="M64.1,68.3c0-1.6,0.8-2.5,2.3-2.5c1.5,0,2.3,0.9,2.3,2.5c0,1.8-1,2.5-2.3,2.5C65.1,70.8,64.1,70,64.1,68.3z
				 M67.7,68.3c0-1.2-0.5-1.7-1.2-1.7c-0.7,0-1.2,0.4-1.2,1.7c0,1.1,0.5,1.6,1.2,1.6C67.2,69.9,67.7,69.4,67.7,68.3z"/>
			<path class="st0" d="M71.9,68.4c0-1.7,0.9-2.6,2.2-2.6c0.5,0,0.8,0.1,1.1,0.2v-2.1h1.1v6.8h-0.9l-0.2-0.6l-0.1,0
				c-0.3,0.3-0.7,0.7-1.4,0.7C72.5,70.8,71.9,69.7,71.9,68.4z M75.2,69.3v-2.4c-0.3-0.1-0.6-0.2-0.9-0.2c-1,0-1.3,0.8-1.3,1.7
				c0,1,0.4,1.6,1,1.6C74.5,69.9,74.9,69.7,75.2,69.3z"/>
			<path class="st0" d="M81.5,70.4c-0.5,0.2-1.1,0.3-1.7,0.3c-1.3,0-2.5-0.6-2.5-2.4c0-1.9,1.1-2.5,2.3-2.5c1.4,0,2,0.8,2,2.1
				c0,0.1,0,0.2,0,0.4h-3.2v0.2c0,1.1,0.6,1.5,1.5,1.5c0.5,0,1-0.1,1.5-0.3L81.5,70.4z M80.6,67.7c0-0.8-0.4-1.1-1-1.1
				c-0.6,0-1,0.3-1.1,1.1H80.6z"/>
			<path class="st0" d="M90,70.7c-0.2,0-0.4,0.1-0.6,0.1c-0.4,0-0.6-0.1-0.9-0.3c-0.3-0.3-1-1.4-1.5-2.4h-0.9v2.6H85V64h2
				c1.5,0,2.3,0.6,2.3,1.9c0,0.9-0.3,1.4-1.1,1.8c0.3,0.5,0.7,1.2,1.2,1.9c0.2,0.3,0.4,0.3,0.6,0.3H90L90,70.7L90,70.7z M86.1,67.2
				h0.5c0.9,0,1.4-0.3,1.4-1.2c0-0.8-0.5-1.1-1.3-1.1h-0.6V67.2z"/>
			<path class="st0" d="M95.2,70.6c-0.3,0.1-0.7,0.2-0.9,0.2c-0.5,0-0.7-0.2-0.8-0.6l0,0c-0.5,0.4-0.9,0.7-1.5,0.7
				c-0.8,0-1.5-0.6-1.5-1.4c0-0.7,0.4-0.9,1.1-1.1c0.6-0.2,1.4-0.3,1.9-0.4v-0.3c0-0.6-0.2-0.9-0.9-0.9c-0.5,0-1.1,0.2-1.6,0.4
				l-0.2-0.7c0.6-0.3,1.3-0.5,1.9-0.5c1,0,2,0.3,2,1.7v2.1c0,0.2,0,0.3,0.3,0.3c0.1,0,0.2,0,0.3,0L95.2,70.6z M92.4,70
				c0.3,0,0.7-0.2,1.1-0.6v-1.1c-0.4,0.1-1,0.2-1.3,0.3c-0.3,0.1-0.5,0.2-0.5,0.6C91.7,69.7,92,70,92.4,70z"/>
			<path class="st0" d="M95.8,68.4c0-1.7,0.9-2.6,2.2-2.6c0.5,0,0.8,0.1,1.1,0.2v-2.1h1.1v6.8h-0.9l-0.2-0.6l-0.1,0
				c-0.3,0.3-0.7,0.7-1.4,0.7C96.4,70.8,95.8,69.7,95.8,68.4z M99.1,69.3v-2.4c-0.3-0.1-0.6-0.2-0.9-0.2c-1,0-1.3,0.8-1.3,1.7
				c0,1,0.4,1.6,1,1.6C98.4,69.9,98.8,69.7,99.1,69.3z"/>
			<path class="st0" d="M101.9,63.6c0.4,0,0.7,0.3,0.7,0.6c0,0.4-0.3,0.6-0.7,0.6c-0.4,0-0.7-0.3-0.7-0.6
				C101.2,63.9,101.5,63.6,101.9,63.6z M101.3,65.9h1.1v4.8h-1.1V65.9z"/>
			<path class="st0" d="M103.5,68.3c0-1.6,0.8-2.5,2.3-2.5c1.5,0,2.3,0.9,2.3,2.5c0,1.8-0.9,2.5-2.3,2.5
				C104.4,70.8,103.5,70,103.5,68.3z M107,68.3c0-1.2-0.5-1.7-1.2-1.7c-0.7,0-1.2,0.4-1.2,1.7c0,1.1,0.5,1.6,1.2,1.6
				C106.5,69.9,107,69.4,107,68.3z"/>
			<path class="st0" d="M108.9,68.4c0-1.7,0.9-2.6,2.2-2.6c0.5,0,0.8,0.1,1.1,0.2v-2.1h1.1v6.8h-0.9l-0.2-0.6l-0.1,0
				c-0.3,0.3-0.7,0.7-1.4,0.7C109.6,70.8,108.9,69.7,108.9,68.4z M112.2,69.3v-2.4c-0.3-0.1-0.6-0.2-0.9-0.2c-1,0-1.3,0.8-1.3,1.7
				c0,1,0.4,1.6,1,1.6C111.6,69.9,112,69.7,112.2,69.3z"/>
			<path class="st0" d="M115.1,63.6c0.4,0,0.7,0.3,0.7,0.6c0,0.4-0.3,0.6-0.7,0.6c-0.4,0-0.7-0.3-0.7-0.6
				C114.4,63.9,114.7,63.6,115.1,63.6z M114.5,65.9h1.1v4.8h-1.1V65.9z"/>
			<path class="st0" d="M116.4,65.9h0.8v-0.3c0-1.4,0.7-1.7,1.6-1.7c0.4,0,0.8,0.1,1.1,0.2l-0.2,0.8c-0.2-0.1-0.5-0.1-0.8-0.1
				c-0.5,0-0.7,0.2-0.7,0.9v0.4h1.3l-0.1,0.8h-1.2v4h-1.1v-4h-0.7C116.4,66.7,116.4,65.9,116.4,65.9z"/>
			<path class="st0" d="M124.6,70.7h-0.9l-0.2-0.6l-0.1,0c-0.5,0.4-1,0.7-1.5,0.7c-1,0-1.6-0.7-1.6-1.8v-3.1h1.1v2.9
				c0,0.7,0.3,1.1,0.9,1.1c0.4,0,0.9-0.3,1.1-0.6v-3.4h1.1L124.6,70.7L124.6,70.7z"/>
			<path class="st0" d="M127.3,70.8c-0.6,0-1.3-0.2-1.7-0.4l0.1-0.8c0.4,0.2,1,0.4,1.5,0.4c0.5,0,0.9-0.1,0.9-0.6
				c0-0.9-2.5-0.5-2.5-2.1c0-0.9,0.8-1.4,1.9-1.4c0.6,0,1.2,0.2,1.5,0.3l-0.2,0.8c-0.3-0.1-0.9-0.3-1.3-0.3c-0.5,0-0.8,0.2-0.8,0.6
				c0,0.8,2.5,0.5,2.5,2.1C129.3,70.3,128.4,70.8,127.3,70.8z"/>
			<path class="st0" d="M130.8,63.6c0.4,0,0.7,0.3,0.7,0.6c0,0.4-0.3,0.6-0.7,0.6c-0.4,0-0.7-0.3-0.7-0.6
				C130.1,63.9,130.4,63.6,130.8,63.6z M130.2,65.9h1.1v4.8h-1.1V65.9z"/>
			<path class="st0" d="M132.4,68.3c0-1.6,0.8-2.5,2.3-2.5c1.5,0,2.3,0.9,2.3,2.5c0,1.8-1,2.5-2.3,2.5
				C133.3,70.8,132.4,70,132.4,68.3z M135.9,68.3c0-1.2-0.5-1.7-1.2-1.7c-0.7,0-1.2,0.4-1.2,1.7c0,1.1,0.5,1.6,1.2,1.6
				C135.4,69.9,135.9,69.4,135.9,68.3z M133.9,65l1.2-2l0.9,0.5l-1.6,1.7L133.9,65z"/>
			<path class="st0" d="M138.1,65.9h0.9l0.1,0.6l0.1,0c0.5-0.5,1-0.7,1.6-0.7c1,0,1.5,0.7,1.5,1.8v3.1h-1.1v-2.9
				c0-0.8-0.3-1.1-0.8-1.1c-0.5,0-0.9,0.3-1.2,0.6v3.3h-1.1L138.1,65.9L138.1,65.9z"/>
			<path class="st0" d="M28.3,79c0-1.7,0.9-2.6,2.2-2.6c0.5,0,0.8,0.1,1.1,0.2v-2.1h1.1v6.8h-0.9l-0.2-0.6l-0.1,0
				c-0.3,0.3-0.7,0.7-1.4,0.7C28.9,81.4,28.3,80.3,28.3,79z M31.6,79.9v-2.4c-0.3-0.1-0.6-0.2-0.9-0.2c-1,0-1.3,0.8-1.3,1.7
				c0,1,0.4,1.6,1,1.6C30.9,80.5,31.3,80.3,31.6,79.9z"/>
			<path class="st0" d="M37.9,81c-0.5,0.2-1.1,0.3-1.7,0.3c-1.3,0-2.5-0.6-2.5-2.4c0-1.9,1.1-2.5,2.3-2.5c1.4,0,2,0.8,2,2.1
				c0,0.1,0,0.2,0,0.4h-3.2v0.2c0,1.1,0.6,1.5,1.5,1.5c0.5,0,1-0.1,1.5-0.3L37.9,81z M37,78.3c0-0.8-0.4-1.1-1-1.1
				c-0.6,0-1,0.3-1.1,1.1H37z"/>
			<path class="st0" d="M39,74.5h1.1v6.8H39V74.5z"/>
			<path class="st0" d="M43.7,74.7h3.6v0.9h-2.4v2h1.9l-0.1,0.8h-1.8v2h2.5v0.9h-3.7L43.7,74.7L43.7,74.7z"/>
			<path class="st0" d="M49.8,81.4c-0.6,0-1.3-0.2-1.7-0.4l0.1-0.8c0.4,0.2,1,0.4,1.5,0.4c0.5,0,0.9-0.1,0.9-0.6
				c0-0.9-2.5-0.5-2.5-2.1c0-0.9,0.8-1.4,1.9-1.4c0.6,0,1.2,0.2,1.5,0.3l-0.2,0.8c-0.3-0.1-0.9-0.3-1.3-0.3c-0.5,0-0.8,0.2-0.8,0.6
				c0,0.8,2.5,0.5,2.5,2.1C51.8,80.9,50.9,81.4,49.8,81.4z"/>
			<path class="st0" d="M52.4,76.5h0.8l0.2-1.2h0.9v1.2h1.5l-0.1,0.8h-1.4v2.5c0,0.4,0.1,0.7,0.6,0.7c0.2,0,0.6-0.1,0.9-0.2l0.1,0.8
				c-0.5,0.2-1,0.3-1.4,0.3c-1,0-1.4-0.5-1.4-1.5v-2.6h-0.8L52.4,76.5L52.4,76.5z"/>
			<path class="st0" d="M61.3,81.2c-0.3,0.1-0.7,0.2-0.9,0.2c-0.5,0-0.7-0.2-0.8-0.6l0,0c-0.5,0.4-0.9,0.7-1.5,0.7
				c-0.8,0-1.5-0.6-1.5-1.4c0-0.7,0.4-0.9,1.1-1.1c0.6-0.2,1.4-0.3,1.9-0.4v-0.3c0-0.6-0.2-0.9-0.9-0.9c-0.5,0-1.1,0.2-1.6,0.4
				L56.8,77c0.6-0.3,1.3-0.5,1.9-0.5c1,0,2,0.3,2,1.7v2.1c0,0.2,0,0.3,0.3,0.3c0.1,0,0.2,0,0.3,0L61.3,81.2z M58.4,80.6
				c0.3,0,0.7-0.2,1.1-0.6V79c-0.4,0.1-1,0.2-1.3,0.3c-0.3,0.1-0.5,0.2-0.5,0.6C57.7,80.3,58,80.6,58.4,80.6z"/>
			<path class="st0" d="M61.8,79c0-1.7,0.9-2.6,2.2-2.6c0.5,0,0.8,0.1,1.1,0.2v-2.1h1.1v6.8h-0.9l-0.2-0.6l-0.1,0
				c-0.3,0.3-0.7,0.7-1.4,0.7C62.4,81.4,61.8,80.3,61.8,79z M65.1,79.9v-2.4c-0.3-0.1-0.6-0.2-0.9-0.2c-1,0-1.3,0.8-1.3,1.7
				c0,1,0.4,1.6,1,1.6C64.4,80.5,64.8,80.3,65.1,79.9z"/>
			<path class="st0" d="M67.2,78.9c0-1.6,0.8-2.5,2.3-2.5c1.5,0,2.3,0.9,2.3,2.5c0,1.8-0.9,2.5-2.3,2.5
				C68.2,81.4,67.2,80.7,67.2,78.9z M70.7,78.9c0-1.2-0.5-1.7-1.2-1.7c-0.7,0-1.2,0.4-1.2,1.7c0,1.1,0.5,1.6,1.2,1.6
				C70.3,80.6,70.7,80,70.7,78.9z"/>
			<path class="st0" d="M82.4,81.3h-1.1L81,76.6h0c-0.6,1.5-1.7,3.8-1.9,4.2l-0.6,0.1c-0.4-0.9-1.1-2.6-2-4.3h0l-0.2,4.8h-1.1
				l0.3-6.6h1.2c1,1.9,2,4.1,2.1,4.5h0c0.4-0.7,1.3-2.8,2-4.5H82L82.4,81.3z"/>
			<path class="st0" d="M87.6,81c-0.5,0.2-1.1,0.3-1.7,0.3c-1.3,0-2.5-0.6-2.5-2.4c0-1.9,1.1-2.5,2.3-2.5c1.4,0,2,0.8,2,2.1
				c0,0.1,0,0.2,0,0.4h-3.2v0.2c0,1.1,0.6,1.5,1.5,1.5c0.5,0,1-0.1,1.5-0.3L87.6,81z M86.7,78.3c0-0.8-0.4-1.1-1-1.1
				c-0.6,0-1,0.3-1.1,1.1H86.7z"/>
			<path class="st0" d="M91.6,78.8c0.4,0.7,0.6,0.9,1,1.4c0.2,0.2,0.4,0.3,0.6,0.3v0.8c-0.1,0-0.3,0-0.5,0c-0.4,0-0.7-0.1-1-0.6
				c-0.3-0.4-0.5-0.8-0.8-1.3h0c-0.2,0.4-0.6,0.9-1.2,1.9h-1.2c0.7-1.1,1.4-2.1,1.6-2.5c-0.3-0.5-0.5-0.8-0.8-1.2
				c-0.2-0.3-0.4-0.4-0.6-0.4v-0.7c0.2,0,0.3,0,0.4,0c0.5,0,0.7,0.1,1,0.6c0.3,0.4,0.5,0.7,0.7,1.1h0c0.2-0.3,0.5-0.9,1-1.7h1.2
				C92.5,77.5,91.9,78.4,91.6,78.8z"/>
			<path class="st0" d="M94.6,74.2c0.4,0,0.7,0.3,0.7,0.6c0,0.4-0.3,0.6-0.7,0.6c-0.4,0-0.7-0.3-0.7-0.6
				C94,74.5,94.2,74.2,94.6,74.2z M94.1,76.5h1.1v4.8h-1.1V76.5z"/>
			<path class="st0" d="M96.2,79c0-1.4,0.5-2.5,2.2-2.5c0.5,0,1.1,0.1,1.5,0.3l-0.2,0.9c-0.3-0.2-0.8-0.3-1.2-0.3
				c-0.9,0-1.2,0.6-1.2,1.6c0,0.9,0.4,1.5,1.3,1.5c0.4,0,0.9-0.1,1.2-0.2l0.1,0.8c-0.4,0.2-1,0.3-1.6,0.3
				C97.1,81.4,96.2,80.6,96.2,79z"/>
			<path class="st0" d="M105.4,81.2c-0.3,0.1-0.7,0.2-0.9,0.2c-0.5,0-0.7-0.2-0.8-0.6l0,0c-0.5,0.4-0.9,0.7-1.5,0.7
				c-0.8,0-1.5-0.6-1.5-1.4c0-0.7,0.4-0.9,1.1-1.1c0.6-0.2,1.4-0.3,1.9-0.4v-0.3c0-0.6-0.2-0.9-0.9-0.9c-0.5,0-1.1,0.2-1.6,0.4
				L101,77c0.6-0.3,1.3-0.5,1.9-0.5c1,0,2,0.3,2,1.7v2.1c0,0.2,0,0.3,0.3,0.3c0.1,0,0.2,0,0.3,0L105.4,81.2z M102.6,80.6
				c0.3,0,0.7-0.2,1.1-0.6V79c-0.4,0.1-1,0.2-1.3,0.3c-0.3,0.1-0.5,0.2-0.5,0.6C101.9,80.3,102.2,80.6,102.6,80.6z"/>
			<path class="st0" d="M106.2,76.5h0.9l0.1,0.6l0.1,0c0.5-0.5,1-0.7,1.6-0.7c1,0,1.5,0.7,1.5,1.8v3.1h-1.1v-2.9
				c0-0.8-0.3-1.1-0.8-1.1c-0.5,0-0.9,0.3-1.2,0.6v3.3h-1.1L106.2,76.5L106.2,76.5z"/>
			<path class="st0" d="M111.4,78.9c0-1.6,0.8-2.5,2.3-2.5c1.5,0,2.3,0.9,2.3,2.5c0,1.8-1,2.5-2.3,2.5
				C112.4,81.4,111.4,80.7,111.4,78.9z M114.9,78.9c0-1.2-0.5-1.7-1.2-1.7c-0.7,0-1.2,0.4-1.2,1.7c0,1.1,0.5,1.6,1.2,1.6
				C114.5,80.6,114.9,80,114.9,78.9z"/>
		</g>
	</g>
	<g>
		<path class="st0" d="M110.3,25.6h-1.7v5.5h1.5c2.8,0,4.5-0.2,4.5-2.9C114.5,25.7,113,25.6,110.3,25.6z"/>
		<path class="st0" d="M70.9,25.6h-2.1v6.5c0,0.1,1.1,0.1,1.7,0.1c3.3,0,5-0.5,5-3.6C75.6,25.9,73.7,25.6,70.9,25.6z"/>
		<path class="st0" d="M111.8,8.2c-8.2,0-15.4,4-19.8,10.2C87.5,12.2,80.3,8.2,72.1,8.2s-15.4,4-19.8,10.2
			C47.8,12.2,40.6,8.2,32.4,8.2C19,8.2,8,19.1,8,32.6C8,46.1,19,57,32.4,57c8.2,0,15.4-4,19.8-10.2C56.7,53,63.9,57,72.1,57
			s15.4-4,19.8-10.2C96.4,53,103.6,57,111.8,57c13.5,0,24.4-10.9,24.4-24.4C136.2,19.1,125.2,8.2,111.8,8.2z M32.4,46.8
			c-3.7,0-7.2-1-9.4-2.3l1-5.4c2.1,1.3,5.3,2.4,8.1,2.4c2.5,0,4.1-0.8,4.1-2.5c0-2.4-3.9-3.1-7.5-5.1c-2.9-1.6-5.4-3.3-5.4-7.3
			c0-5.2,3.9-7.8,10.1-7.8c2.6,0,6.1,0.7,8.4,1.8l-1.2,5.1c-1.8-0.8-4.5-1.5-6.7-1.5c-2.2,0-3.5,0.7-3.5,2.3c0,2.2,4.7,3.1,8.4,5.3
			c2.3,1.4,4,3.2,4,6.6C42.8,44.6,37.9,46.8,32.4,46.8z M71.2,37.6c-0.8,0-2.3,0-2.3-0.1v8.6h-8.2V18.8h11.9
			c6.8,0,10.1,3.5,10.1,8.8C82.6,33.5,78.8,37.6,71.2,37.6z M123.6,46.4c-1.4,0.2-2.1,0.4-3.1,0.4c-1.8,0-3-0.2-4.3-1.6
			c-1.2-1.4-3.4-5.8-5.4-8.6h-2.3v9.6h-6.8V18.8h9.6c6.6,0,10.2,3,10.2,8.4c0,3.7-1.4,5.9-4.3,7.4c0.9,1.6,2.4,3.5,4,5.5
			c0.9,0.9,1.6,0.6,2.5,0.6h0L123.6,46.4L123.6,46.4z"/>
	</g>
</g>
</svg>
