<?xml version="1.0" encoding="utf-8"?>
<!-- Generator: Adobe Illustrator 24.1.0, SVG Export Plug-In . SVG Version: 6.00 Build 0)  -->
<svg version="1.1" id="Layer_1" xmlns="http://www.w3.org/2000/svg" xmlns:xlink="http://www.w3.org/1999/xlink" x="0px" y="0px"
	 viewBox="0 0 196 54" style="enable-background:new 0 0 196 54;" xml:space="preserve">
<style type="text/css">
	.st0{fill:#ED7155;}
	.st1{fill:#494646;}
	.st2{fill:#848383;}
</style>
<rect x="0.5" y="26.2" class="st0" width="7.4" height="21.5"/>
<rect x="9.9" y="23.9" class="st0" width="6.4" height="18.6"/>
<rect x="18.4" y="22.5" class="st0" width="6.2" height="20.1"/>
<rect x="26.8" y="23.9" class="st0" width="6.2" height="18.6"/>
<rect x="10" y="44.6" class="st0" width="23.1" height="8.8"/>
<polygon class="st1" points="37.2,42.3 37.3,42.3 37.3,42.3 "/>
<path class="st2" d="M45.9,35.7h6.9l0.7,4.7l7.4-0.8L53.8,1.5h-8.6l-7.9,40.8l7.7-0.9L45.9,35.7z M49.5,11.9L52,29.4h-5.2L49.5,11.9
	z"/>
<polygon class="st1" points="40.1,42.3 37.3,42.3 37.2,42.3 "/>
<polygon class="st2" points="82.8,36.1 71.8,36.1 71.8,1.5 64.3,1.5 64.3,39.2 82.8,37.1 "/>
<polygon class="st2" points="95.3,7.4 102.8,7.4 102.8,1.5 80.2,1.5 80.2,7.4 87.7,7.4 87.7,36.5 95.3,35.7 "/>
<path class="st2" d="M117.4,1.5h-8.6l-6.5,33.3l20.9-2.4L117.4,1.5z M110.4,29.4l2.7-17.5l2.5,17.5H110.4z"/>
<polygon class="st2" points="146.4,1.5 138.7,1.5 135,28.5 131,1.5 123,1.5 129,31.8 140.9,30.4 "/>
<path class="st2" d="M156,11.7c0-1.7-0.2-3.5,1.4-4.6c0.9-0.7,2-0.8,2.4-0.8c1.9,0,2.8,1,3.1,1.8c0.6,1.2,0.5,3.1,0.5,3.3v16.5
	L171,27V10.9c0-2.8-0.3-4.1-0.9-5.4c-1.2-2.4-4.3-4.8-10.2-4.8c-4.6,0-7.4,1.3-8.9,2.7c-2.7,2.4-2.5,6.5-2.5,7.4v18.9l7.6-0.9V11.7
	H156z"/>
<polygon class="st2" points="195.5,5.6 195.5,1.5 175.6,1.5 175.6,7.8 186.9,7.8 179,26.1 186.9,25.2 "/>
</svg>
