<?xml version="1.0" encoding="utf-8"?>
<!-- Generator: Adobe Illustrator 24.1.0, SVG Export Plug-In . SVG Version: 6.00 Build 0)  -->
<svg version="1.1" id="Capa_1" xmlns="http://www.w3.org/2000/svg" xmlns:xlink="http://www.w3.org/1999/xlink" x="0px" y="0px"
	 viewBox="0 0 144 90" style="enable-background:new 0 0 144 90;" xml:space="preserve">
<style type="text/css">
	.st0{fill:#272727;}
</style>
<g>
	<g>
		<path class="st0" d="M110.7,37H109v5.5h1.5c2.8,0,4.5-0.2,4.5-2.9C114.9,37.1,113.4,37,110.7,37z"/>
		<path class="st0" d="M71.3,37h-2.1v6.5c0,0.1,1.1,0.1,1.7,0.1c3.3,0,5-0.5,5-3.6C76,37.3,74.1,37,71.3,37z"/>
		<path class="st0" d="M112.2,19.6c-8.2,0-15.4,4-19.8,10.2c-4.5-6.2-11.7-10.2-19.9-10.2s-15.4,4-19.8,10.2
			C48.2,23.6,41,19.6,32.8,19.6C19.4,19.6,8.4,30.5,8.4,44s11,24.4,24.4,24.4c8.2,0,15.4-4,19.8-10.2c4.5,6.2,11.7,10.2,19.9,10.2
			s15.4-4,19.8-10.2c4.5,6.2,11.7,10.2,19.9,10.2c13.5,0,24.4-10.9,24.4-24.4S125.6,19.6,112.2,19.6z M32.8,58.2
			c-3.7,0-7.2-1-9.4-2.3l1-5.4c2.1,1.3,5.3,2.4,8.1,2.4c2.5,0,4.1-0.8,4.1-2.5c0-2.4-3.9-3.1-7.5-5.1c-2.9-1.6-5.4-3.3-5.4-7.3
			c0-5.2,3.9-7.8,10.1-7.8c2.6,0,6.1,0.7,8.4,1.8L41,37.1c-1.8-0.8-4.5-1.5-6.7-1.5s-3.5,0.7-3.5,2.3c0,2.2,4.7,3.1,8.4,5.3
			c2.3,1.4,4,3.2,4,6.6C43.2,56,38.3,58.2,32.8,58.2z M71.6,49c-0.8,0-2.3,0-2.3-0.1v8.6h-8.2V30.2H73c6.8,0,10.1,3.5,10.1,8.8
			C83,44.9,79.2,49,71.6,49z M124,57.8c-1.4,0.2-2.1,0.4-3.1,0.4c-1.8,0-3-0.2-4.3-1.6c-1.2-1.4-3.4-5.8-5.4-8.6h-2.3v9.6h-6.8V30.2
			h9.6c6.6,0,10.2,3,10.2,8.4c0,3.7-1.4,5.9-4.3,7.4c0.9,1.6,2.4,3.5,4,5.5c0.9,0.9,1.6,0.6,2.5,0.6l0,0L124,57.8L124,57.8z"/>
	</g>
</g>
</svg>
