<?xml version="1.0" encoding="utf-8"?>
<!-- Generator: Adobe Illustrator 24.0.1, SVG Export Plug-In . SVG Version: 6.00 Build 0)  -->
<svg version="1.1" id="Capa_1" xmlns="http://www.w3.org/2000/svg" xmlns:xlink="http://www.w3.org/1999/xlink" x="0px" y="0px"
	 viewBox="0 0 144 90" style="enable-background:new 0 0 144 90;" xml:space="preserve">
<style type="text/css">
	.st0{fill:#FFFFFF;}
</style>
<g>
	<path class="st0" d="M110.3,39.5h-1.7V45h1.5c2.8,0,4.5-0.2,4.5-2.9C114.5,39.5,113,39.5,110.3,39.5z"/>
	<path class="st0" d="M70.9,39.5h-2.1V46c0,0.1,1.1,0.1,1.7,0.1c3.3,0,5-0.5,5-3.6C75.6,39.8,73.7,39.5,70.9,39.5z"/>
	<path class="st0" d="M111.7,22c-8.2,0-15.4,4-19.8,10.2C87.5,26.1,80.2,22,72.1,22s-15.4,4-19.8,10.2C47.8,26.1,40.6,22,32.4,22
		C18.9,22,8,33,8,46.4c0,13.5,10.9,24.4,24.4,24.4c8.2,0,15.4-4,19.8-10.2c4.4,6.2,11.7,10.2,19.8,10.2s15.4-4,19.8-10.2
		c4.4,6.2,11.7,10.2,19.8,10.2c13.5,0,24.4-10.9,24.4-24.4C136.1,33,125.2,22,111.7,22z M32.4,60.6c-3.7,0-7.2-1-9.4-2.3l1-5.4
		c2.1,1.3,5.3,2.4,8.1,2.4c2.5,0,4.1-0.8,4.1-2.5c0-2.4-3.9-3.1-7.5-5.1c-2.9-1.6-5.4-3.3-5.4-7.3c0-5.2,3.9-7.8,10.1-7.8
		c2.6,0,6.1,0.7,8.4,1.8l-1.2,5.1c-1.8-0.8-4.5-1.5-6.7-1.5s-3.5,0.7-3.5,2.3c0,2.2,4.7,3.1,8.4,5.3c2.3,1.4,4,3.2,4,6.6
		C42.8,58.5,37.9,60.6,32.4,60.6z M71.2,51.5c-0.8,0-2.3,0-2.3-0.1V60h-8.2V32.7h11.9c6.8,0,10.1,3.5,10.1,8.8
		C82.6,47.4,78.8,51.5,71.2,51.5z M123.6,60.2c-1.4,0.2-2.1,0.4-3.1,0.4c-1.8,0-3-0.2-4.3-1.6c-1.2-1.4-3.4-5.8-5.4-8.6h-2.3V60
		h-6.8V32.7h9.6c6.6,0,10.2,3,10.2,8.4c0,3.7-1.4,5.9-4.3,7.4c0.9,1.6,2.4,3.5,4,5.5c0.9,0.9,1.6,0.6,2.5,0.6l0,0L123.6,60.2
		L123.6,60.2z"/>
</g>
</svg>
